<?xml version="1.0" standalone="no"?>
<!DOCTYPE svg PUBLIC "-//W3C//DTD SVG 20010904//EN"
 "http://www.w3.org/TR/2001/REC-SVG-20010904/DTD/svg10.dtd">
<svg version="1.0" xmlns="http://www.w3.org/2000/svg"
 width="216.000000pt" height="216.000000pt" viewBox="0 0 216.000000 216.000000"
 preserveAspectRatio="xMidYMid meet">
<metadata>
Created by potrace 1.11, written by Peter Selinger 2001-2013
</metadata>
<g transform="translate(0.000000,216.000000) scale(0.100000,-0.100000)"
fill="#000000" stroke="none">
<path d="M710 1761 c-124 -40 -176 -126 -168 -278 9 -193 116 -323 264 -323
146 1 239 111 237 285 -1 188 -96 312 -246 321 -34 2 -73 0 -87 -5z"/>
<path d="M1300 1744 c-19 -8 -50 -29 -69 -47 -82 -78 -116 -173 -109 -308 4
-75 8 -94 34 -136 78 -126 266 -141 377 -29 127 127 140 378 26 481 -22 20
-51 40 -65 45 -38 15 -155 11 -194 -6z"/>
<path d="M196 1358 c-52 -14 -121 -82 -135 -133 -40 -148 36 -313 178 -384
103 -52 192 -49 277 10 144 99 129 333 -30 447 -84 61 -198 84 -290 60z"/>
<path d="M1783 1335 c-104 -32 -194 -113 -226 -201 -23 -66 -22 -176 2 -230
46 -101 148 -155 255 -135 106 20 180 67 238 152 119 174 63 380 -113 418 -64
14 -103 13 -156 -4z"/>
<path d="M936 1049 c-133 -31 -254 -130 -314 -257 -33 -69 -36 -84 -40 -186
-9 -233 64 -366 202 -366 25 0 82 13 127 30 134 49 157 49 295 1 135 -47 174
-50 225 -18 85 52 127 135 135 269 17 259 -132 473 -366 527 -54 13 -210 12
-264 0z"/>
</g>
</svg>
